<svg width="14" height="14" viewBox="0 0 14 14" fill="#03053D" xmlns="http://www.w3.org/2000/svg">
<path d="M6.95749 5.50029L11.0998 1.35795C11.0998 1.35795 11.853 0.604803 12.6145 1.36629C13.3759 2.12777 12.6228 2.88092 12.6228 2.88092L8.48046 7.02326L12.6686 11.2114C12.6686 11.2114 13.4301 11.9729 12.677 12.7261C11.9238 13.4792 11.1623 12.7177 11.1623 12.7177L6.97415 8.52956L2.80073 12.703C2.80073 12.703 2.07867 13.425 1.31718 12.6636C0.5557 11.9021 1.27776 11.18 1.27776 11.18L5.45118 7.00659L1.26302 2.81842C1.26302 2.81842 0.501533 2.05694 1.25468 1.30379C2.00784 0.550636 2.76932 1.31212 2.76932 1.31212L6.95749 5.50029Z" />
</svg>
